TITLE ""
FILE "DISC1Track16.mp3" MP3
  TRACK 01 AUDIO
    TITLE "DISC1Track16_01"
    INDEX 01 00:00:00
  TRACK 02 AUDIO
    TITLE "DISC1Track16_02"
    INDEX 01 00:03:05
  TRACK 03 AUDIO
    TITLE "DISC1Track16_03"
    INDEX 01 00:03:34
  TRACK 04 AUDIO
    TITLE "DISC1Track16_04"
    INDEX 01 00:06:23
  TRACK 05 AUDIO
    TITLE "DISC1Track16_05"
    INDEX 01 00:08:63
  TRACK 06 AUDIO
    TITLE "DISC1Track16_06"
    INDEX 01 00:11:08
  TRACK 07 AUDIO
    TITLE "DISC1Track16_07"
    INDEX 01 00:11:39
  TRACK 08 AUDIO
    TITLE "DISC1Track16_08"
    INDEX 01 00:14:22
  TRACK 09 AUDIO
    TITLE "DISC1Track16_09"
    INDEX 01 00:16:56
  TRACK 10 AUDIO
    TITLE "DISC1Track16_10"
    INDEX 01 00:18:73
  TRACK 11 AUDIO
    TITLE "DISC1Track16_11"
    INDEX 01 00:19:15
  TRACK 12 AUDIO
    TITLE "DISC1Track16_12"
    INDEX 01 00:21:71
  TRACK 13 AUDIO
    TITLE "DISC1Track16_13"
    INDEX 01 00:24:26
  TRACK 14 AUDIO
    TITLE "DISC1Track16_14"
    INDEX 01 00:26:37
  TRACK 15 AUDIO
    TITLE "DISC1Track16_15"
    INDEX 01 00:26:68
  TRACK 16 AUDIO
    TITLE "DISC1Track16_16"
    INDEX 01 00:29:71
  TRACK 17 AUDIO
    TITLE "DISC1Track16_17"
    INDEX 01 00:32:42
  TRACK 18 AUDIO
    TITLE "DISC1Track16_18"
    INDEX 01 00:34:68
  TRACK 19 AUDIO
    TITLE "DISC1Track16_19"
    INDEX 01 00:35:20
  TRACK 20 AUDIO
    TITLE "DISC1Track16_20"
    INDEX 01 00:38:23
  TRACK 21 AUDIO
    TITLE "DISC1Track16_21"
    INDEX 01 00:41:01
  TRACK 22 AUDIO
    TITLE "DISC1Track16_22"
    INDEX 01 00:43:36
  TRACK 23 AUDIO
    TITLE "DISC1Track16_23"
    INDEX 01 00:43:67
  TRACK 24 AUDIO
    TITLE "DISC1Track16_24"
    INDEX 01 00:46:63
  TRACK 25 AUDIO
    TITLE "DISC1Track16_25"
    INDEX 01 00:49:22
  TRACK 26 AUDIO
    TITLE "DISC1Track16_26"
    INDEX 01 00:51:37
  TRACK 27 AUDIO
    TITLE "DISC1Track16_27"
    INDEX 01 00:51:68
  TRACK 28 AUDIO
    TITLE "DISC1Track16_28"
    INDEX 01 00:53:50
  TRACK 29 AUDIO
    TITLE "DISC1Track16_29"
    INDEX 01 00:55:62
  TRACK 30 AUDIO
    TITLE "DISC1Track16_30"
    INDEX 01 00:57:63
  TRACK 31 AUDIO
    TITLE "DISC1Track16_31"
    INDEX 01 00:58:16
  TRACK 32 AUDIO
    TITLE "DISC1Track16_32"
    INDEX 01 01:01:10
  TRACK 33 AUDIO
    TITLE "DISC1Track16_33"
    INDEX 01 01:03:27
  TRACK 34 AUDIO
    TITLE "DISC1Track16_34"
    INDEX 01 01:05:22
  TRACK 35 AUDIO
    TITLE "DISC1Track16_35"
    INDEX 01 01:05:53
  TRACK 36 AUDIO
    TITLE "DISC1Track16_36"
    INDEX 01 01:06:74
  TRACK 37 AUDIO
    TITLE "DISC1Track16_37"
    INDEX 01 01:08:55
  TRACK 38 AUDIO
    TITLE "DISC1Track16_38"
    INDEX 01 01:10:27
  TRACK 39 AUDIO
    TITLE "DISC1Track16_39"
    INDEX 01 01:10:58
  TRACK 40 AUDIO
    TITLE "DISC1Track16_40"
    INDEX 01 01:14:32
  TRACK 41 AUDIO
    TITLE "DISC1Track16_41"
    INDEX 01 01:17:15
  TRACK 42 AUDIO
    TITLE "DISC1Track16_42"
    INDEX 01 01:19:57
  TRACK 43 AUDIO
    TITLE "DISC1Track16_43"
    INDEX 01 01:20:11
  TRACK 44 AUDIO
    TITLE "DISC1Track16_44"
    INDEX 01 01:23:17
  TRACK 45 AUDIO
    TITLE "DISC1Track16_45"
    INDEX 01 01:25:22
  TRACK 46 AUDIO
    TITLE "DISC1Track16_46"
    INDEX 01 01:27:23
  TRACK 47 AUDIO
    TITLE "DISC1Track16_47"
    INDEX 01 01:27:51
  TRACK 48 AUDIO
    TITLE "DISC1Track16_48"
    INDEX 01 01:30:31
  TRACK 49 AUDIO
    TITLE "DISC1Track16_49"
    INDEX 01 01:32:32
  TRACK 50 AUDIO
    TITLE "DISC1Track16_50"
    INDEX 01 01:34:27
